# xmcd
#
# Track frame offsets:
#	150
#	12281
#	26360
#	38077
#	49882
#	59119
#	72446
#	83166
#	93186
#	104049
#	120666
#	138667
#	150330
#	163168
#	175956
#	187920
#	205380
#	219925
#
# Disc length: 3125 seconds
#
# Revision: 0
# Processed by: cddbd v1.5.2PL0 Copyright (c) Steve Scherf et al.
# Submitted via: AudioConverter v4.1 Copyright (c) Dennis Rebentrost
#
DISCID=fb0c3312
DTITLE=Various Artist - Up Country - CD 2
DYEAR=2007
DGENRE=Country
TTITLE0=Wanda Jackson - Stand By Your Man
TTITLE1=Juice Newton - All I Have To Do Is Dream
TTITLE2=Hank Thompson - Hangover Tavern
TTITLE3=Tennessee Ernie Ford - Sixteen Tons
TTITLE4=Jim Reeves - I Wont Forget You
TTITLE5=Lynn Anderson - Rose Garden
TTITLE6=Kris Kristofferson - Help Me Make It Through The Night
TTITLE7=Willie Nelson - Touch Me
TTITLE8=Dr Hook - Bad Eye Bill
TTITLE9=Eddie Rabbit - Step By Step
TTITLE10=Dottie West - Hey, Mr Dream Maker
TTITLE11=George Jones - She Thinks I Still Care
TTITLE12=Kenny Rogers - Ruby, Dont Take Your Love To Town
TTITLE13=Lacy J Dalton - The Teart
TTITLE14=Sonny James - Only The Lonely
TTITLE15=Suzy Bogus - Fear Of Flying
TTITLE16=Tanya Tucker - Just Another Love
TTITLE17=Tex Ritter - High Noon (Do Not Forsake Me)
EXTD=
EXTT0=
EXTT1=
EXTT2=
EXTT3=
EXTT4=
EXTT5=
EXTT6=
EXTT7=
EXTT8=
EXTT9=
EXTT10=
EXTT11=
EXTT12=
EXTT13=
EXTT14=
EXTT15=
EXTT16=
EXTT17=
PLAYORDER=
